<svg xmlns="http://www.w3.org/2000/svg" xmlns:xlink="http://www.w3.org/1999/xlink" id="Layer_1" x="0" y="0" enable-background="new 0 0 25.7 25.7" version="1.1" viewBox="0 0 25.7 25.7" xml:space="preserve"><g><line x1="4.3" x2="15.3" y1="4.3" y2="4.3" fill="none" stroke="#8F4923" stroke-linecap="round" stroke-linejoin="round" stroke-miterlimit="10" stroke-width="1.3"/><rect width="5" height="6" x="4.3" y="7.3" fill="none" stroke="#8F4923" stroke-linecap="round" stroke-linejoin="round" stroke-miterlimit="10" stroke-width="1.3"/><line x1="12.3" x2="15.3" y1="8.6" y2="8.6" fill="none" stroke="#8F4923" stroke-linecap="round" stroke-linejoin="round" stroke-miterlimit="10" stroke-width="1.3"/><line x1="11.3" x2="15.3" y1="11" y2="11" fill="none" stroke="#8F4923" stroke-linecap="round" stroke-linejoin="round" stroke-miterlimit="10" stroke-width="1.3"/><line x1="11.3" x2="15.3" y1="13.3" y2="13.3" fill="none" stroke="#8F4923" stroke-linecap="round" stroke-linejoin="round" stroke-miterlimit="10" stroke-width="1.3"/><line x1="4.3" x2="15.3" y1="15.6" y2="15.6" fill="none" stroke="#8F4923" stroke-linecap="round" stroke-linejoin="round" stroke-miterlimit="10" stroke-width="1.3"/><line x1="4.3" x2="15.3" y1="17.9" y2="17.9" fill="none" stroke="#8F4923" stroke-linecap="round" stroke-linejoin="round" stroke-miterlimit="10" stroke-width="1.3"/><line x1="4.3" x2="15.3" y1="20.3" y2="20.3" fill="none" stroke="#8F4923" stroke-linecap="round" stroke-linejoin="round" stroke-miterlimit="10" stroke-width="1.3"/><path fill="none" stroke="#8F4923" stroke-linecap="round" stroke-linejoin="round" stroke-miterlimit="10" stroke-width="1.3" d="M20.3,6.3h2v15c0,0.6-0.4,1-1,1c-0.6,0-1-0.4-1-1V2.8h-2v2"/><path fill="none" stroke="#8F4923" stroke-linecap="round" stroke-linejoin="round" stroke-miterlimit="10" stroke-width="1.3" d="M21.3,24.3h-17c-1.7,0-3-1.3-3-3v-20h17v20C18.3,23,19.7,24.3,21.3,24.3c1.7,0,3-1.3,3-3v-17h-4"/></g></svg>