<svg xmlns="http://www.w3.org/2000/svg" xmlns:xlink="http://www.w3.org/1999/xlink" id="Layer_1" width="40" height="40" x="0" y="0" enable-background="new 0 0 40 40" version="1.1" viewBox="0 0 40 40" xml:space="preserve"><g><path fill="none" stroke="#231F20" stroke-linecap="round" stroke-linejoin="round" stroke-miterlimit="10" d="M29.601,15.868 l5.045,3.468v13.243c0,1.044-0.849,1.892-1.893,1.892H7.529c-1.045,0-1.892-0.848-1.892-1.892V19.336l5.045-3.468"/><polyline fill="none" stroke="#231F20" stroke-linecap="round" stroke-linejoin="round" stroke-miterlimit="10" points="9.421 30.688 15.727 25.643 24.555 25.643 30.861 30.688"/><line x1="34.646" x2="27.078" y1="19.336" y2="24.381" fill="none" stroke="#231F20" stroke-linecap="round" stroke-linejoin="round" stroke-miterlimit="10"/><line x1="5.638" x2="13.204" y1="19.336" y2="24.381" fill="none" stroke="#231F20" stroke-linecap="round" stroke-linejoin="round" stroke-miterlimit="10"/><polyline fill="none" stroke="#231F20" stroke-linecap="round" stroke-linejoin="round" stroke-miterlimit="10" points="29.601 22.489 29.601 5.463 10.683 5.463 10.683 22.489"/><line x1="14.466" x2="16.988" y1="9.247" y2="9.247" fill="none" stroke="#231F20" stroke-linecap="round" stroke-linejoin="round" stroke-miterlimit="10"/><line x1="16.988" x2="25.816" y1="13.03" y2="13.03" fill="none" stroke="#231F20" stroke-linecap="round" stroke-linejoin="round" stroke-miterlimit="10"/><line x1="14.466" x2="25.816" y1="16.814" y2="16.814" fill="none" stroke="#231F20" stroke-linecap="round" stroke-linejoin="round" stroke-miterlimit="10"/><line x1="14.466" x2="25.816" y1="20.597" y2="20.597" fill="none" stroke="#231F20" stroke-linecap="round" stroke-linejoin="round" stroke-miterlimit="10"/></g></svg>